<svg xmlns="http://www.w3.org/2000/svg" width="920" height="330" viewBox="0 0 920 330" role="img" aria-label="Oscilloscope: daily contribution counts as a phosphor waveform">
<title>Oscilloscope: daily contribution counts as a phosphor waveform</title>
<defs>
<linearGradient id="fade" x1="0" y1="0" x2="1" y2="0">
<stop offset="0" stop-color="#0d1117"/>
<stop offset="1" stop-color="#0d1117"/>
</linearGradient>
</defs>
<rect width="920" height="330" rx="10" fill="#0a0e14"/>
<rect x="10" y="10" width="900" height="310" rx="10" fill="#0d1117" stroke="#1f2730" stroke-width="1"/>
<text x="460.0" y="24" fill="#8b949e" font-family="ui-monospace, SFMono-Regular, 'SF Mono', Menlo, Consolas, 'Liberation Mono', monospace" font-size="11" text-anchor="middle">contributions.scope</text>
<circle cx="26" cy="20" r="5" fill="#ff5f57"/><circle cx="44" cy="20" r="5" fill="#febc2e"/><circle cx="62" cy="20" r="5" fill="#28c840"/>
<rect x="52" y="52" width="596" height="206" rx="6" fill="#1f2730"/>
<rect x="60" y="60" width="580" height="190" rx="0" fill="#04120a"/>
<line x1="118.0" y1="60" x2="118.0" y2="250" stroke="#0f3a1f" stroke-width="1"/>
<line x1="176.0" y1="60" x2="176.0" y2="250" stroke="#0f3a1f" stroke-width="1"/>
<line x1="234.0" y1="60" x2="234.0" y2="250" stroke="#0f3a1f" stroke-width="1"/>
<line x1="292.0" y1="60" x2="292.0" y2="250" stroke="#0f3a1f" stroke-width="1"/>
<line x1="350.0" y1="60" x2="350.0" y2="250" stroke="#0f3a1f" stroke-width="1"/>
<line x1="408.0" y1="60" x2="408.0" y2="250" stroke="#0f3a1f" stroke-width="1"/>
<line x1="466.0" y1="60" x2="466.0" y2="250" stroke="#0f3a1f" stroke-width="1"/>
<line x1="524.0" y1="60" x2="524.0" y2="250" stroke="#0f3a1f" stroke-width="1"/>
<line x1="582.0" y1="60" x2="582.0" y2="250" stroke="#0f3a1f" stroke-width="1"/>
<line x1="60" y1="91.66666666666667" x2="640" y2="91.66666666666667" stroke="#0f3a1f" stroke-width="1"/>
<line x1="60" y1="123.33333333333334" x2="640" y2="123.33333333333334" stroke="#0f3a1f" stroke-width="1"/>
<line x1="60" y1="186.66666666666669" x2="640" y2="186.66666666666669" stroke="#0f3a1f" stroke-width="1"/>
<line x1="60" y1="218.33333333333334" x2="640" y2="218.33333333333334" stroke="#0f3a1f" stroke-width="1"/>
<line x1="60" y1="155.0" x2="640" y2="155.0" stroke="#1d5c33" stroke-width="1" stroke-dasharray="6 6"/>
<polyline fill="none" stroke="#39d353" stroke-width="6" points="60.0,155.0 61.59340659340659,155.0 63.18681318681319,155.0 64.78021978021978,155.0 66.37362637362638,155.0 67.96703296703296,155.0 69.56043956043956,155.0 71.15384615384616,155.0 72.74725274725274,155.0 74.34065934065934,155.0 75.93406593406593,155.0 77.52747252747253,155.0 79.12087912087912,155.0 80.71428571428572,155.0 82.3076923076923,155.0 83.9010989010989,155.0 85.49450549450549,155.0 87.08791208791209,155.0 88.68131868131869,155.0 90.27472527472527,155.0 91.86813186813187,155.0 93.46153846153845,155.0 95.05494505494505,155.0 96.64835164835165,155.0 98.24175824175825,155.0 99.83516483516483,155.0 101.42857142857143,155.0 103.02197802197801,155.0 104.61538461538461,155.0 106.20879120879121,155.0 107.80219780219781,155.0 109.3956043956044,155.0 110.98901098901098,155.0 112.58241758241758,155.0 114.17582417582418,155.0 115.76923076923077,155.0 117.36263736263737,155.0 118.95604395604396,155.0 120.54945054945054,155.0 122.14285714285714,155.0 123.73626373626374,155.0 125.32967032967034,155.0 126.92307692307692,155.0 128.5164835164835,155.0 130.1098901098901,155.0 131.7032967032967,155.0 133.2967032967033,155.0 134.8901098901099,155.0 136.4835164835165,155.0 138.0769230769231,155.0 139.67032967032966,155.0 141.26373626373626,155.0 142.85714285714286,155.0 144.45054945054943,155.0 146.04395604395603,155.0 147.63736263736263,155.0 149.23076923076923,155.0 150.82417582417582,155.0 152.41758241758242,155.0 154.01098901098902,155.0 155.60439560439562,155.0 157.19780219780222,155.0 158.7912087912088,155.0 160.3846153846154,155.0 161.97802197802196,155.0 163.57142857142856,155.0 165.16483516483515,155.0 166.75824175824175,155.0 168.35164835164835,155.0 169.94505494505495,155.0 171.53846153846155,155.0 171.53846153846155,145.5 173.13186813186815,155.0 173.13186813186815,148.66666666666666 174.72527472527474,155.0 176.3186813186813,155.0 177.9120879120879,155.0 179.5054945054945,155.0 181.09890109890108,155.0 182.69230769230768,155.0 184.28571428571428,155.0 185.87912087912088,155.0 187.47252747252747,155.0 189.06593406593407,155.0 190.65934065934067,155.0 192.25274725274724,155.0 193.84615384615384,155.0 195.43956043956044,155.0 197.03296703296704,155.0 198.62637362637363,155.0 200.21978021978023,155.0 201.8131868131868,155.0 203.4065934065934,155.0 205.0,155.0 206.5934065934066,155.0 208.1868131868132,155.0 209.78021978021977,155.0 211.37362637362637,155.0 212.96703296703296,155.0 214.56043956043956,155.0 216.15384615384616,155.0 217.74725274725276,155.0 219.34065934065933,155.0 220.93406593406593,155.0 222.52747252747253,155.0 224.12087912087912,155.0 225.71428571428572,155.0 227.30769230769232,155.0 228.9010989010989,155.0 230.4945054945055,155.0 232.0879120879121,155.0 233.6813186813187,155.0 235.27472527472528,155.0 236.86813186813185,155.0 238.46153846153845,155.0 240.05494505494505,155.0 241.64835164835165,155.0 243.24175824175825,155.0 244.83516483516485,155.0 246.42857142857142,155.0 248.02197802197801,155.0 249.6153846153846,155.0 251.2087912087912,155.0 252.8021978021978,155.0 254.3956043956044,155.0 255.98901098901098,155.0 257.5824175824176,155.0 259.1758241758242,155.0 260.7692307692308,155.0 262.3626373626374,155.0 263.9560439560439,155.0 265.5494505494505,155.0 267.1428571428571,155.0 268.7362637362637,155.0 270.3296703296703,155.0 271.9230769230769,155.0 273.5164835164835,155.0 275.1098901098901,155.0 276.7032967032967,155.0 278.2967032967033,155.0 279.8901098901099,155.0 281.4835164835165,155.0 283.0769230769231,155.0 284.6703296703297,155.0 286.2637362637363,155.0 287.8571428571429,155.0 289.4505494505495,155.0 291.0439560439561,155.0 292.6373626373626,155.0 294.2307692307692,155.0 295.8241758241758,155.0 297.4175824175824,155.0 299.010989010989,155.0 300.60439560439556,155.0 302.19780219780216,155.0 303.79120879120876,155.0 305.38461538461536,155.0 306.97802197802196,155.0 308.57142857142856,155.0 310.16483516483515,155.0 311.75824175824175,155.0 313.35164835164835,155.0 314.94505494505495,155.0 316.53846153846155,155.0 318.13186813186815,155.0 319.72527472527474,155.0 321.31868131868134,155.0 322.9120879120879,155.0 324.5054945054945,155.0 326.0989010989011,155.0 327.6923076923077,155.0 329.2857142857143,155.0 330.8791208791209,155.0 332.4725274725275,155.0 334.0659340659341,155.0 335.65934065934067,155.0 337.25274725274727,155.0 338.84615384615387,155.0 340.43956043956047,155.0 342.032967032967,155.0 343.6263736263736,155.0 345.2197802197802,155.0 346.8131868131868,155.0 348.4065934065934,155.0 350.0,155.0 351.5934065934066,155.0 353.1868131868132,155.0 354.7802197802198,155.0 356.3736263736264,155.0 357.967032967033,155.0 359.56043956043953,155.0 361.15384615384613,155.0 362.74725274725273,155.0 364.34065934065933,155.0 365.9340659340659,155.0 367.5274725274725,155.0 369.1208791208791,155.0 370.7142857142857,155.0 372.3076923076923,155.0 373.9010989010989,155.0 375.4945054945055,155.0 377.0879120879121,155.0 378.68131868131866,155.0 380.27472527472526,155.0 381.86813186813185,155.0 383.46153846153845,155.0 385.05494505494505,155.0 386.64835164835165,155.0 388.24175824175825,155.0 389.83516483516485,155.0 391.42857142857144,155.0 393.02197802197804,155.0 394.61538461538464,155.0 396.2087912087912,155.0 397.8021978021978,155.0 399.3956043956044,155.0 400.989010989011,155.0 402.5824175824176,155.0 404.1758241758242,155.0 405.7692307692308,155.0 407.3626373626374,155.0 408.95604395604397,155.0 410.54945054945057,155.0 412.14285714285717,155.0 413.7362637362637,155.0 415.3296703296703,155.0 416.9230769230769,155.0 418.5164835164835,155.0 420.1098901098901,155.0 421.7032967032967,155.0 423.2967032967033,155.0 424.8901098901099,155.0 426.4835164835165,155.0 428.0769230769231,155.0 429.6703296703297,155.0 431.2637362637363,155.0 432.85714285714283,155.0 434.45054945054943,155.0 436.04395604395603,155.0 437.6373626373626,155.0 439.2307692307692,155.0 440.8241758241758,155.0 442.4175824175824,155.0 444.010989010989,155.0 445.6043956043956,155.0 447.1978021978022,155.0 448.7912087912088,155.0 450.38461538461536,155.0 451.97802197802196,155.0 453.57142857142856,155.0 455.16483516483515,155.0 456.75824175824175,155.0 458.35164835164835,155.0 459.94505494505495,155.0 461.53846153846155,155.0 463.13186813186815,155.0 464.72527472527474,155.0 466.31868131868134,155.0 467.9120879120879,155.0 469.5054945054945,155.0 471.0989010989011,155.0 472.6923076923077,155.0 474.2857142857143,155.0 475.8791208791209,155.0 477.4725274725275,155.0 479.0659340659341,155.0 480.65934065934067,155.0 482.25274725274727,155.0 483.84615384615387,155.0 485.43956043956047,155.0 487.032967032967,155.0 488.6263736263736,155.0 490.2197802197802,155.0 490.2197802197802,123.33333333333333 491.8131868131868,155.0 493.4065934065934,155.0 495.0,155.0 496.5934065934066,155.0 498.1868131868132,155.0 499.7802197802198,155.0 501.3736263736264,155.0 502.967032967033,155.0 504.56043956043953,155.0 506.15384615384613,155.0 507.74725274725273,155.0 509.34065934065933,155.0 510.9340659340659,155.0 512.5274725274726,155.0 514.1208791208792,155.0 515.7142857142858,155.0 517.3076923076924,155.0 518.901098901099,155.0 520.4945054945056,155.0 522.0879120879122,155.0 523.6813186813187,155.0 525.2747252747253,155.0 526.8681318681319,155.0 528.4615384615385,155.0 530.054945054945,155.0 531.6483516483516,155.0 533.2417582417582,155.0 534.8351648351648,155.0 536.4285714285714,155.0 538.021978021978,155.0 539.6153846153846,155.0 541.2087912087911,155.0 542.8021978021977,155.0 544.3956043956043,155.0 544.3956043956043,145.5 545.9890109890109,155.0 547.5824175824175,155.0 549.1758241758241,155.0 550.7692307692307,155.0 552.3626373626373,155.0 552.3626373626373,151.83333333333334 553.9560439560439,155.0 555.5494505494505,155.0 557.1428571428571,155.0 558.7362637362637,155.0 560.3296703296703,155.0 561.9230769230769,155.0 563.5164835164835,155.0 565.1098901098901,155.0 566.7032967032967,155.0 568.2967032967033,155.0 569.8901098901099,155.0 571.4835164835165,155.0 573.0769230769231,155.0 574.6703296703297,155.0 576.2637362637363,155.0 577.8571428571429,155.0 579.4505494505495,155.0 581.0439560439561,155.0 582.6373626373627,155.0 584.2307692307693,155.0 585.8241758241758,155.0 587.4175824175824,155.0 589.010989010989,155.0 590.6043956043956,155.0 592.1978021978022,155.0 593.7912087912088,155.0 595.3846153846154,155.0 596.978021978022,155.0 598.5714285714286,155.0 600.1648351648352,155.0 601.7582417582418,155.0 603.3516483516484,155.0 604.945054945055,155.0 606.5384615384615,155.0 608.1318681318681,155.0 609.7252747252747,155.0 611.3186813186813,155.0 612.9120879120879,155.0 614.5054945054945,155.0 616.0989010989011,155.0 617.6923076923077,155.0 619.2857142857143,155.0 620.8791208791209,155.0 620.8791208791209,139.16666666666666 622.4725274725274,155.0 622.4725274725274,151.83333333333334 624.065934065934,155.0 624.065934065934,151.83333333333334 625.6593406593406,155.0 625.6593406593406,151.83333333333334 627.2527472527472,155.0 627.2527472527472,151.83333333333334 628.8461538461538,155.0 628.8461538461538,151.83333333333334 630.4395604395604,155.0 630.4395604395604,151.83333333333334 632.032967032967,155.0 632.032967032967,151.83333333333334 633.6263736263736,155.0 633.6263736263736,126.5 635.2197802197802,155.0 635.2197802197802,151.83333333333334 636.8131868131868,155.0 636.8131868131868,151.83333333333334 638.4065934065934,155.0 638.4065934065934,151.83333333333334 640.0,155.0" opacity="0.18"/>
<polyline fill="none" stroke="#39d353" stroke-width="1.4" points="60.0,155.0 61.59340659340659,155.0 63.18681318681319,155.0 64.78021978021978,155.0 66.37362637362638,155.0 67.96703296703296,155.0 69.56043956043956,155.0 71.15384615384616,155.0 72.74725274725274,155.0 74.34065934065934,155.0 75.93406593406593,155.0 77.52747252747253,155.0 79.12087912087912,155.0 80.71428571428572,155.0 82.3076923076923,155.0 83.9010989010989,155.0 85.49450549450549,155.0 87.08791208791209,155.0 88.68131868131869,155.0 90.27472527472527,155.0 91.86813186813187,155.0 93.46153846153845,155.0 95.05494505494505,155.0 96.64835164835165,155.0 98.24175824175825,155.0 99.83516483516483,155.0 101.42857142857143,155.0 103.02197802197801,155.0 104.61538461538461,155.0 106.20879120879121,155.0 107.80219780219781,155.0 109.3956043956044,155.0 110.98901098901098,155.0 112.58241758241758,155.0 114.17582417582418,155.0 115.76923076923077,155.0 117.36263736263737,155.0 118.95604395604396,155.0 120.54945054945054,155.0 122.14285714285714,155.0 123.73626373626374,155.0 125.32967032967034,155.0 126.92307692307692,155.0 128.5164835164835,155.0 130.1098901098901,155.0 131.7032967032967,155.0 133.2967032967033,155.0 134.8901098901099,155.0 136.4835164835165,155.0 138.0769230769231,155.0 139.67032967032966,155.0 141.26373626373626,155.0 142.85714285714286,155.0 144.45054945054943,155.0 146.04395604395603,155.0 147.63736263736263,155.0 149.23076923076923,155.0 150.82417582417582,155.0 152.41758241758242,155.0 154.01098901098902,155.0 155.60439560439562,155.0 157.19780219780222,155.0 158.7912087912088,155.0 160.3846153846154,155.0 161.97802197802196,155.0 163.57142857142856,155.0 165.16483516483515,155.0 166.75824175824175,155.0 168.35164835164835,155.0 169.94505494505495,155.0 171.53846153846155,155.0 171.53846153846155,145.5 173.13186813186815,155.0 173.13186813186815,148.66666666666666 174.72527472527474,155.0 176.3186813186813,155.0 177.9120879120879,155.0 179.5054945054945,155.0 181.09890109890108,155.0 182.69230769230768,155.0 184.28571428571428,155.0 185.87912087912088,155.0 187.47252747252747,155.0 189.06593406593407,155.0 190.65934065934067,155.0 192.25274725274724,155.0 193.84615384615384,155.0 195.43956043956044,155.0 197.03296703296704,155.0 198.62637362637363,155.0 200.21978021978023,155.0 201.8131868131868,155.0 203.4065934065934,155.0 205.0,155.0 206.5934065934066,155.0 208.1868131868132,155.0 209.78021978021977,155.0 211.37362637362637,155.0 212.96703296703296,155.0 214.56043956043956,155.0 216.15384615384616,155.0 217.74725274725276,155.0 219.34065934065933,155.0 220.93406593406593,155.0 222.52747252747253,155.0 224.12087912087912,155.0 225.71428571428572,155.0 227.30769230769232,155.0 228.9010989010989,155.0 230.4945054945055,155.0 232.0879120879121,155.0 233.6813186813187,155.0 235.27472527472528,155.0 236.86813186813185,155.0 238.46153846153845,155.0 240.05494505494505,155.0 241.64835164835165,155.0 243.24175824175825,155.0 244.83516483516485,155.0 246.42857142857142,155.0 248.02197802197801,155.0 249.6153846153846,155.0 251.2087912087912,155.0 252.8021978021978,155.0 254.3956043956044,155.0 255.98901098901098,155.0 257.5824175824176,155.0 259.1758241758242,155.0 260.7692307692308,155.0 262.3626373626374,155.0 263.9560439560439,155.0 265.5494505494505,155.0 267.1428571428571,155.0 268.7362637362637,155.0 270.3296703296703,155.0 271.9230769230769,155.0 273.5164835164835,155.0 275.1098901098901,155.0 276.7032967032967,155.0 278.2967032967033,155.0 279.8901098901099,155.0 281.4835164835165,155.0 283.0769230769231,155.0 284.6703296703297,155.0 286.2637362637363,155.0 287.8571428571429,155.0 289.4505494505495,155.0 291.0439560439561,155.0 292.6373626373626,155.0 294.2307692307692,155.0 295.8241758241758,155.0 297.4175824175824,155.0 299.010989010989,155.0 300.60439560439556,155.0 302.19780219780216,155.0 303.79120879120876,155.0 305.38461538461536,155.0 306.97802197802196,155.0 308.57142857142856,155.0 310.16483516483515,155.0 311.75824175824175,155.0 313.35164835164835,155.0 314.94505494505495,155.0 316.53846153846155,155.0 318.13186813186815,155.0 319.72527472527474,155.0 321.31868131868134,155.0 322.9120879120879,155.0 324.5054945054945,155.0 326.0989010989011,155.0 327.6923076923077,155.0 329.2857142857143,155.0 330.8791208791209,155.0 332.4725274725275,155.0 334.0659340659341,155.0 335.65934065934067,155.0 337.25274725274727,155.0 338.84615384615387,155.0 340.43956043956047,155.0 342.032967032967,155.0 343.6263736263736,155.0 345.2197802197802,155.0 346.8131868131868,155.0 348.4065934065934,155.0 350.0,155.0 351.5934065934066,155.0 353.1868131868132,155.0 354.7802197802198,155.0 356.3736263736264,155.0 357.967032967033,155.0 359.56043956043953,155.0 361.15384615384613,155.0 362.74725274725273,155.0 364.34065934065933,155.0 365.9340659340659,155.0 367.5274725274725,155.0 369.1208791208791,155.0 370.7142857142857,155.0 372.3076923076923,155.0 373.9010989010989,155.0 375.4945054945055,155.0 377.0879120879121,155.0 378.68131868131866,155.0 380.27472527472526,155.0 381.86813186813185,155.0 383.46153846153845,155.0 385.05494505494505,155.0 386.64835164835165,155.0 388.24175824175825,155.0 389.83516483516485,155.0 391.42857142857144,155.0 393.02197802197804,155.0 394.61538461538464,155.0 396.2087912087912,155.0 397.8021978021978,155.0 399.3956043956044,155.0 400.989010989011,155.0 402.5824175824176,155.0 404.1758241758242,155.0 405.7692307692308,155.0 407.3626373626374,155.0 408.95604395604397,155.0 410.54945054945057,155.0 412.14285714285717,155.0 413.7362637362637,155.0 415.3296703296703,155.0 416.9230769230769,155.0 418.5164835164835,155.0 420.1098901098901,155.0 421.7032967032967,155.0 423.2967032967033,155.0 424.8901098901099,155.0 426.4835164835165,155.0 428.0769230769231,155.0 429.6703296703297,155.0 431.2637362637363,155.0 432.85714285714283,155.0 434.45054945054943,155.0 436.04395604395603,155.0 437.6373626373626,155.0 439.2307692307692,155.0 440.8241758241758,155.0 442.4175824175824,155.0 444.010989010989,155.0 445.6043956043956,155.0 447.1978021978022,155.0 448.7912087912088,155.0 450.38461538461536,155.0 451.97802197802196,155.0 453.57142857142856,155.0 455.16483516483515,155.0 456.75824175824175,155.0 458.35164835164835,155.0 459.94505494505495,155.0 461.53846153846155,155.0 463.13186813186815,155.0 464.72527472527474,155.0 466.31868131868134,155.0 467.9120879120879,155.0 469.5054945054945,155.0 471.0989010989011,155.0 472.6923076923077,155.0 474.2857142857143,155.0 475.8791208791209,155.0 477.4725274725275,155.0 479.0659340659341,155.0 480.65934065934067,155.0 482.25274725274727,155.0 483.84615384615387,155.0 485.43956043956047,155.0 487.032967032967,155.0 488.6263736263736,155.0 490.2197802197802,155.0 490.2197802197802,123.33333333333333 491.8131868131868,155.0 493.4065934065934,155.0 495.0,155.0 496.5934065934066,155.0 498.1868131868132,155.0 499.7802197802198,155.0 501.3736263736264,155.0 502.967032967033,155.0 504.56043956043953,155.0 506.15384615384613,155.0 507.74725274725273,155.0 509.34065934065933,155.0 510.9340659340659,155.0 512.5274725274726,155.0 514.1208791208792,155.0 515.7142857142858,155.0 517.3076923076924,155.0 518.901098901099,155.0 520.4945054945056,155.0 522.0879120879122,155.0 523.6813186813187,155.0 525.2747252747253,155.0 526.8681318681319,155.0 528.4615384615385,155.0 530.054945054945,155.0 531.6483516483516,155.0 533.2417582417582,155.0 534.8351648351648,155.0 536.4285714285714,155.0 538.021978021978,155.0 539.6153846153846,155.0 541.2087912087911,155.0 542.8021978021977,155.0 544.3956043956043,155.0 544.3956043956043,145.5 545.9890109890109,155.0 547.5824175824175,155.0 549.1758241758241,155.0 550.7692307692307,155.0 552.3626373626373,155.0 552.3626373626373,151.83333333333334 553.9560439560439,155.0 555.5494505494505,155.0 557.1428571428571,155.0 558.7362637362637,155.0 560.3296703296703,155.0 561.9230769230769,155.0 563.5164835164835,155.0 565.1098901098901,155.0 566.7032967032967,155.0 568.2967032967033,155.0 569.8901098901099,155.0 571.4835164835165,155.0 573.0769230769231,155.0 574.6703296703297,155.0 576.2637362637363,155.0 577.8571428571429,155.0 579.4505494505495,155.0 581.0439560439561,155.0 582.6373626373627,155.0 584.2307692307693,155.0 585.8241758241758,155.0 587.4175824175824,155.0 589.010989010989,155.0 590.6043956043956,155.0 592.1978021978022,155.0 593.7912087912088,155.0 595.3846153846154,155.0 596.978021978022,155.0 598.5714285714286,155.0 600.1648351648352,155.0 601.7582417582418,155.0 603.3516483516484,155.0 604.945054945055,155.0 606.5384615384615,155.0 608.1318681318681,155.0 609.7252747252747,155.0 611.3186813186813,155.0 612.9120879120879,155.0 614.5054945054945,155.0 616.0989010989011,155.0 617.6923076923077,155.0 619.2857142857143,155.0 620.8791208791209,155.0 620.8791208791209,139.16666666666666 622.4725274725274,155.0 622.4725274725274,151.83333333333334 624.065934065934,155.0 624.065934065934,151.83333333333334 625.6593406593406,155.0 625.6593406593406,151.83333333333334 627.2527472527472,155.0 627.2527472527472,151.83333333333334 628.8461538461538,155.0 628.8461538461538,151.83333333333334 630.4395604395604,155.0 630.4395604395604,151.83333333333334 632.032967032967,155.0 632.032967032967,151.83333333333334 633.6263736263736,155.0 633.6263736263736,126.5 635.2197802197802,155.0 635.2197802197802,151.83333333333334 636.8131868131868,155.0 636.8131868131868,151.83333333333334 638.4065934065934,155.0 638.4065934065934,151.83333333333334 640.0,155.0"/>
<line x1="60" y1="60" x2="60" y2="250" stroke="#39d353" stroke-width="1.5" opacity="0.55"><animate attributeName="x1" values="60;640" dur="7s" repeatCount="indefinite"/><animate attributeName="x2" values="60;640" dur="7s" repeatCount="indefinite"/></line>
<line x1="60" y1="60" x2="60" y2="250" stroke="#39d353" stroke-width="6" opacity="0.14"><animate attributeName="x1" values="60;640" dur="7s" repeatCount="indefinite"/><animate attributeName="x2" values="60;640" dur="7s" repeatCount="indefinite"/></line>
<text x="72" y="80" fill="#00ff41" font-family="ui-monospace, SFMono-Regular, 'SF Mono', Menlo, Consolas, 'Liberation Mono', monospace" font-size="11" text-anchor="start" font-weight="normal">CH1: CONTRIBUTIONS</text>
<text x="72" y="96" fill="#00ff41" font-family="ui-monospace, SFMono-Regular, 'SF Mono', Menlo, Consolas, 'Liberation Mono', monospace" font-size="11" text-anchor="start" font-weight="normal">V/DIV: 10 commits</text>
<text x="72" y="238" fill="#00ff41" font-family="ui-monospace, SFMono-Regular, 'SF Mono', Menlo, Consolas, 'Liberation Mono', monospace" font-size="11" text-anchor="start" font-weight="normal">T/DIV: 36 days</text>
<text x="628" y="80" fill="#00ff41" font-family="ui-monospace, SFMono-Regular, 'SF Mono', Menlo, Consolas, 'Liberation Mono', monospace" font-size="11" text-anchor="end" font-weight="normal">pk-pk: 10 · mean: 0.12 · 43 samples</text>
<text x="628" y="238" fill="#e3b341" font-family="ui-monospace, SFMono-Regular, 'SF Mono', Menlo, Consolas, 'Liberation Mono', monospace" font-size="11" text-anchor="end" font-weight="normal">TRIG: RUN</text>
<text x="680" y="78" fill="#8b949e" font-family="ui-monospace, SFMono-Regular, 'SF Mono', Menlo, Consolas, 'Liberation Mono', monospace" font-size="11" text-anchor="start" font-weight="normal">BEAM</text>
<text x="680" y="92" fill="#8b949e" font-family="ui-monospace, SFMono-Regular, 'SF Mono', Menlo, Consolas, 'Liberation Mono', monospace" font-size="12" text-anchor="start" font-weight="normal">   samples</text>
<text x="764" y="92" fill="#c9d1d9" font-family="ui-monospace, SFMono-Regular, 'SF Mono', Menlo, Consolas, 'Liberation Mono', monospace" font-size="12" text-anchor="start" font-weight="normal">43</text>
<text x="680" y="114" fill="#8b949e" font-family="ui-monospace, SFMono-Regular, 'SF Mono', Menlo, Consolas, 'Liberation Mono', monospace" font-size="12" text-anchor="start" font-weight="normal">      peak</text>
<text x="764" y="114" fill="#c9d1d9" font-family="ui-monospace, SFMono-Regular, 'SF Mono', Menlo, Consolas, 'Liberation Mono', monospace" font-size="12" text-anchor="start" font-weight="normal">10</text>
<text x="680" y="136" fill="#8b949e" font-family="ui-monospace, SFMono-Regular, 'SF Mono', Menlo, Consolas, 'Liberation Mono', monospace" font-size="12" text-anchor="start" font-weight="normal">      mean</text>
<text x="764" y="136" fill="#c9d1d9" font-family="ui-monospace, SFMono-Regular, 'SF Mono', Menlo, Consolas, 'Liberation Mono', monospace" font-size="12" text-anchor="start" font-weight="normal">0.12/day</text>
<text x="680" y="158" fill="#8b949e" font-family="ui-monospace, SFMono-Regular, 'SF Mono', Menlo, Consolas, 'Liberation Mono', monospace" font-size="12" text-anchor="start" font-weight="normal">duty cycle</text>
<text x="764" y="158" fill="#c9d1d9" font-family="ui-monospace, SFMono-Regular, 'SF Mono', Menlo, Consolas, 'Liberation Mono', monospace" font-size="12" text-anchor="start" font-weight="normal">4%</text>
<text x="680" y="180" fill="#8b949e" font-family="ui-monospace, SFMono-Regular, 'SF Mono', Menlo, Consolas, 'Liberation Mono', monospace" font-size="12" text-anchor="start" font-weight="normal">      hold</text>
<text x="764" y="180" fill="#00ff41" font-family="ui-monospace, SFMono-Regular, 'SF Mono', Menlo, Consolas, 'Liberation Mono', monospace" font-size="12" text-anchor="start" font-weight="normal">0d</text>
<text x="60" y="296" fill="#8b949e" font-family="ui-monospace, SFMono-Regular, 'SF Mono', Menlo, Consolas, 'Liberation Mono', monospace" font-size="11" text-anchor="start" font-weight="normal">one sample per day over the rolling 365-day window — idle days hold the beam on the baseline</text>
</svg>
