<svg xmlns="http://www.w3.org/2000/svg" width="920" height="330" viewBox="0 0 920 330" role="img" aria-label="Training log: a year of contributions as a converging loss curve">
<title>Training log: a year of contributions as a converging loss curve</title>
<defs>
<linearGradient id="fade" x1="0" y1="0" x2="1" y2="0">
<stop offset="0" stop-color="#0d1117"/>
<stop offset="1" stop-color="#0d1117"/>
</linearGradient>
</defs>
<rect width="920" height="330" rx="10" fill="#0a0e14"/>
<rect x="10" y="10" width="900" height="310" rx="10" fill="#0d1117" stroke="#1f2730" stroke-width="1"/>
<text x="460.0" y="24" fill="#8b949e" font-family="ui-monospace, SFMono-Regular, 'SF Mono', Menlo, Consolas, 'Liberation Mono', monospace" font-size="11" text-anchor="middle">train_contributor.py</text>
<circle cx="26" cy="20" r="5" fill="#ff5f57"/><circle cx="44" cy="20" r="5" fill="#febc2e"/><circle cx="62" cy="20" r="5" fill="#28c840"/>
<text x="30" y="62" fill="#00ff41" font-family="ui-monospace, SFMono-Regular, 'SF Mono', Menlo, Consolas, 'Liberation Mono', monospace" font-size="13" text-anchor="start" font-weight="normal">$ python train_contributor.py --epochs=52 --optimizer=streak</text>
<rect x="504.0" y="50" width="8" height="14" fill="#00ff41"><animate attributeName="opacity" values="1;0" keyTimes="0;0.5" calcMode="discrete" dur="1.1s" repeatCount="indefinite"/></rect>
<line x1="50" y1="78.0" x2="610" y2="78.0" stroke="#1f2730" stroke-width="1" stroke-dasharray="4 4"/>
<text x="42" y="82.0" fill="#8b949e" font-family="ui-monospace, SFMono-Regular, 'SF Mono', Menlo, Consolas, 'Liberation Mono', monospace" font-size="10" text-anchor="end" font-weight="normal">1.00</text>
<line x1="50" y1="120.5" x2="610" y2="120.5" stroke="#1f2730" stroke-width="1" stroke-dasharray="4 4"/>
<text x="42" y="124.5" fill="#8b949e" font-family="ui-monospace, SFMono-Regular, 'SF Mono', Menlo, Consolas, 'Liberation Mono', monospace" font-size="10" text-anchor="end" font-weight="normal">0.75</text>
<line x1="50" y1="163.0" x2="610" y2="163.0" stroke="#1f2730" stroke-width="1" stroke-dasharray="4 4"/>
<text x="42" y="167.0" fill="#8b949e" font-family="ui-monospace, SFMono-Regular, 'SF Mono', Menlo, Consolas, 'Liberation Mono', monospace" font-size="10" text-anchor="end" font-weight="normal">0.50</text>
<line x1="50" y1="205.5" x2="610" y2="205.5" stroke="#1f2730" stroke-width="1" stroke-dasharray="4 4"/>
<text x="42" y="209.5" fill="#8b949e" font-family="ui-monospace, SFMono-Regular, 'SF Mono', Menlo, Consolas, 'Liberation Mono', monospace" font-size="10" text-anchor="end" font-weight="normal">0.25</text>
<line x1="50" y1="248.0" x2="610" y2="248.0" stroke="#1f2730" stroke-width="1" stroke-dasharray="4 4"/>
<text x="42" y="252.0" fill="#8b949e" font-family="ui-monospace, SFMono-Regular, 'SF Mono', Menlo, Consolas, 'Liberation Mono', monospace" font-size="10" text-anchor="end" font-weight="normal">0.00</text>
<text x="42" y="82" fill="#8b949e" font-family="ui-monospace, SFMono-Regular, 'SF Mono', Menlo, Consolas, 'Liberation Mono', monospace" font-size="10" text-anchor="end" font-weight="normal">loss</text>
<line x1="50.0" y1="78" x2="50.0" y2="248" stroke="#1f2730" stroke-width="1" stroke-dasharray="2 6"/>
<text x="50.0" y="264" fill="#8b949e" font-family="ui-monospace, SFMono-Regular, 'SF Mono', Menlo, Consolas, 'Liberation Mono', monospace" font-size="10" text-anchor="middle" font-weight="normal">e1</text>
<line x1="190.0" y1="78" x2="190.0" y2="248" stroke="#1f2730" stroke-width="1" stroke-dasharray="2 6"/>
<text x="190.0" y="264" fill="#8b949e" font-family="ui-monospace, SFMono-Regular, 'SF Mono', Menlo, Consolas, 'Liberation Mono', monospace" font-size="10" text-anchor="middle" font-weight="normal">e14</text>
<line x1="330.0" y1="78" x2="330.0" y2="248" stroke="#1f2730" stroke-width="1" stroke-dasharray="2 6"/>
<text x="330.0" y="264" fill="#8b949e" font-family="ui-monospace, SFMono-Regular, 'SF Mono', Menlo, Consolas, 'Liberation Mono', monospace" font-size="10" text-anchor="middle" font-weight="normal">e27</text>
<line x1="470.0" y1="78" x2="470.0" y2="248" stroke="#1f2730" stroke-width="1" stroke-dasharray="2 6"/>
<text x="470.0" y="264" fill="#8b949e" font-family="ui-monospace, SFMono-Regular, 'SF Mono', Menlo, Consolas, 'Liberation Mono', monospace" font-size="10" text-anchor="middle" font-weight="normal">e40</text>
<line x1="599.2307692307693" y1="78" x2="599.2307692307693" y2="248" stroke="#1f2730" stroke-width="1" stroke-dasharray="2 6"/>
<text x="599.2307692307693" y="264" fill="#8b949e" font-family="ui-monospace, SFMono-Regular, 'SF Mono', Menlo, Consolas, 'Liberation Mono', monospace" font-size="10" text-anchor="middle" font-weight="normal">e52</text>
<polyline fill="none" stroke="#00ff41" stroke-width="6" points="50.0,78.0 60.98039215686275,78.0 71.9607843137255,78.0 82.94117647058823,78.0 93.92156862745098,78.0 104.90196078431373,78.0 115.88235294117646,78.0 126.86274509803921,92.40677966101694 137.84313725490196,92.40677966101694 148.8235294117647,92.40677966101694 159.80392156862746,92.40677966101694 170.7843137254902,92.40677966101694 181.76470588235293,92.40677966101694 192.7450980392157,92.40677966101694 203.72549019607843,92.40677966101694 214.7058823529412,92.40677966101694 225.68627450980392,92.40677966101694 236.66666666666666,92.40677966101694 247.64705882352942,92.40677966101694 258.62745098039215,92.40677966101694 269.6078431372549,92.40677966101694 280.5882352941177,92.40677966101694 291.5686274509804,92.40677966101694 302.54901960784315,92.40677966101694 313.52941176470586,92.40677966101694 324.5098039215686,92.40677966101694 335.4901960784314,92.40677966101694 346.47058823529414,92.40677966101694 357.45098039215685,92.40677966101694 368.4313725490196,92.40677966101694 379.4117647058824,92.40677966101694 390.3921568627451,92.40677966101694 401.37254901960785,92.40677966101694 412.3529411764706,92.40677966101694 423.3333333333333,92.40677966101694 434.3137254901961,92.40677966101694 445.29411764705884,121.22033898305085 456.27450980392155,121.22033898305085 467.2549019607843,121.22033898305085 478.2352941176471,121.22033898305085 489.2156862745098,121.22033898305085 500.19607843137254,132.74576271186442 511.1764705882353,132.74576271186442 522.1568627450981,132.74576271186442 533.1372549019608,132.74576271186442 544.1176470588235,132.74576271186442 555.0980392156863,132.74576271186442 566.0784313725491,147.15254237288136 577.0588235294117,167.3220338983051 588.0392156862745,210.54237288135593 599.0196078431372,230.71186440677968 610.0,248.0" opacity="0.22"/>
<polyline fill="none" stroke="#00ff41" stroke-width="1.6" points="50.0,78.0 61.0,78.0 72.0,78.0 82.9,78.0 93.9,78.0 104.9,78.0 115.9,78.0 126.9,92.4 137.8,92.4 148.8,92.4 159.8,92.4 170.8,92.4 181.8,92.4 192.7,92.4 203.7,92.4 214.7,92.4 225.7,92.4 236.7,92.4 247.6,92.4 258.6,92.4 269.6,92.4 280.6,92.4 291.6,92.4 302.5,92.4 313.5,92.4 324.5,92.4 335.5,92.4 346.5,92.4 357.5,92.4 368.4,92.4 379.4,92.4 390.4,92.4 401.4,92.4 412.4,92.4 423.3,92.4 434.3,92.4 445.3,121.2 456.3,121.2 467.3,121.2 478.2,121.2 489.2,121.2 500.2,132.7 511.2,132.7 522.2,132.7 533.1,132.7 544.1,132.7 555.1,132.7 566.1,147.2 577.1,167.3 588.0,210.5 599.0,230.7 610.0,248.0" stroke-dasharray="2000" stroke-dashoffset="2000"><animate attributeName="stroke-dashoffset" values="2000;0" dur="2.2s" fill="freeze"/></polyline>
<circle cx="610.0" cy="248.0" r="3.5" fill="#00ff41"><animate attributeName="r" values="3.5;6;3.5" dur="2.4s" repeatCount="indefinite"/><animate attributeName="opacity" values="1;0.35;1" dur="2.4s" repeatCount="indefinite"/></circle>
<text x="648" y="78" fill="#8b949e" font-family="ui-monospace, SFMono-Regular, 'SF Mono', Menlo, Consolas, 'Liberation Mono', monospace" font-size="11" text-anchor="start" font-weight="normal">TRAINING LOG</text>
<text x="648" y="92" fill="#8b949e" font-family="ui-monospace, SFMono-Regular, 'SF Mono', Menlo, Consolas, 'Liberation Mono', monospace" font-size="11" text-anchor="start" font-weight="normal">          epoch</text>
<text x="760" y="92" fill="#c9d1d9" font-family="ui-monospace, SFMono-Regular, 'SF Mono', Menlo, Consolas, 'Liberation Mono', monospace" font-size="11" text-anchor="start" font-weight="normal">52/52</text>
<text x="648" y="116" fill="#8b949e" font-family="ui-monospace, SFMono-Regular, 'SF Mono', Menlo, Consolas, 'Liberation Mono', monospace" font-size="11" text-anchor="start" font-weight="normal">           loss</text>
<text x="760" y="116" fill="#00ff41" font-family="ui-monospace, SFMono-Regular, 'SF Mono', Menlo, Consolas, 'Liberation Mono', monospace" font-size="11" text-anchor="start" font-weight="normal">0.0000</text>
<text x="648" y="140" fill="#8b949e" font-family="ui-monospace, SFMono-Regular, 'SF Mono', Menlo, Consolas, 'Liberation Mono', monospace" font-size="11" text-anchor="start" font-weight="normal">val_loss(streak)</text>
<text x="760" y="140" fill="#c9d1d9" font-family="ui-monospace, SFMono-Regular, 'SF Mono', Menlo, Consolas, 'Liberation Mono', monospace" font-size="11" text-anchor="start" font-weight="normal">0d</text>
<text x="648" y="164" fill="#8b949e" font-family="ui-monospace, SFMono-Regular, 'SF Mono', Menlo, Consolas, 'Liberation Mono', monospace" font-size="11" text-anchor="start" font-weight="normal">      optimizer</text>
<text x="760" y="164" fill="#8b949e" font-family="ui-monospace, SFMono-Regular, 'SF Mono', Menlo, Consolas, 'Liberation Mono', monospace" font-size="11" text-anchor="start" font-weight="normal">streak</text>
<text x="648" y="188" fill="#8b949e" font-family="ui-monospace, SFMono-Regular, 'SF Mono', Menlo, Consolas, 'Liberation Mono', monospace" font-size="11" text-anchor="start" font-weight="normal">     checkpoint</text>
<text x="760" y="188" fill="#58a6ff" font-family="ui-monospace, SFMono-Regular, 'SF Mono', Menlo, Consolas, 'Liberation Mono', monospace" font-size="11" text-anchor="start" font-weight="normal">github.com/mgkvibez</text>
<text x="648" y="212" fill="#8b949e" font-family="ui-monospace, SFMono-Regular, 'SF Mono', Menlo, Consolas, 'Liberation Mono', monospace" font-size="11" text-anchor="start" font-weight="normal">         status</text>
<text x="760" y="212" fill="#e3b341" font-family="ui-monospace, SFMono-Regular, 'SF Mono', Menlo, Consolas, 'Liberation Mono', monospace" font-size="11" text-anchor="start" font-weight="normal">resuming</text>
<text x="50" y="292" fill="#8b949e" font-family="ui-monospace, SFMono-Regular, 'SF Mono', Menlo, Consolas, 'Liberation Mono', monospace" font-size="11" text-anchor="start" font-weight="normal">loss = share of the year's 59 contributions still owed — commits drive it to zero</text>
<text x="50" y="310" fill="#8b949e" font-family="ui-monospace, SFMono-Regular, 'SF Mono', Menlo, Consolas, 'Liberation Mono', monospace" font-size="10" text-anchor="start" font-weight="normal" opacity="0.75">no third-party badge APIs: rendered from the live GitHub GraphQL API and committed by cards.yml</text>
</svg>
